# xmcd
#
# Track frame offsets:
#	150
#	25442
#	43325
#	63880
#	85065
#
# Disc length: 1345 seconds
#
# Revision: 1
# Processed by: cddbd v1.5.2PL0 Copyright (c) Steve Scherf et al.
# Submitted via: audiograbber 1.83.01
#
DISCID=3b053f05
DTITLE=Julian Sas - Wandering Between Worlds - Acoustic Bonus CD
DYEAR=2009
DGENRE=Blues
TTITLE0=First Rays
TTITLE1=Helpin' Hand
TTITLE2=Blues For The Lost And Found
TTITLE3=That's Enough For Me
TTITLE4=Morning Rain
EXTD=
EXTT0=
EXTT1=
EXTT2=
EXTT3=
EXTT4=
PLAYORDER=
